<svg width="102" height="32" viewBox="0 0 102 32" fill="none" xmlns="http://www.w3.org/2000/svg">
<path d="M0 32L6.48399 0H15.1293L21.5285 32H14.536L13.3918 25.2444H8.34867L7.16206 32H0ZM9.02673 21.0173H12.6713L10.849 8.53333L9.02673 21.0173Z" fill="black"/>
<path fill-rule="evenodd" clip-rule="evenodd" d="M23.7125 32L23.7142 17.6593H25.8755L29.6473 32H37.4874L32.7833 16.5136C33.9134 16.0132 34.7751 15.3942 35.3684 14.6568C35.99 13.893 36.4138 12.9975 36.6398 11.9704C36.8658 10.9432 36.9788 9.77119 36.9788 8.45432C36.9788 6.21564 36.4986 4.49054 35.538 3.27901C34.6056 2.04115 33.2919 1.18519 31.5967 0.711111C29.9015 0.237037 27.8956 0 25.5789 0H17.3118L23.7125 32ZM25.8332 13.5901H23.7142V4.74074H26.1722C27.6131 4.74074 28.6019 5.12263 29.1387 5.88642C29.6755 6.65021 29.9439 7.71687 29.9439 9.08642C29.9439 10.0346 29.8168 10.851 29.5625 11.5358C29.3365 12.1942 28.9268 12.7078 28.3335 13.0765C27.7402 13.4189 26.9068 13.5901 25.8332 13.5901Z" fill="black"/>
<path d="M39.7172 32H42.8722V5.25432H48.0001V0L34.9744 0C35.8648 0.56236 36.6386 1.26478 37.2791 2.11019C38.6047 3.79427 39.1243 5.99547 39.1243 8.45432C39.1243 9.87358 39.0029 11.1843 38.7415 12.3723C38.4576 13.6627 37.9123 14.8385 37.0813 15.8612C36.5867 16.4749 35.9847 17.0031 35.2995 17.4562L39.7172 32Z" fill="black"/>
<path d="M45.0029 18.3415V7.64526H48.6058C49.2505 7.64526 49.7803 7.76851 50.1953 8.01501C50.6104 8.2527 50.9194 8.60484 51.1225 9.07143C51.3257 9.52921 51.4272 10.0882 51.4272 10.7485C51.4272 11.576 51.2903 12.2099 51.0166 12.6501C50.7428 13.0814 50.3719 13.3808 49.9039 13.548C49.4359 13.7153 48.9105 13.7989 48.3277 13.7989H47.374V18.3415H45.0029ZM47.374 12.1483H48.1687C48.4601 12.1483 48.6809 12.0954 48.831 11.9898C48.9811 11.8842 49.0783 11.7257 49.1224 11.5144C49.1754 11.3031 49.2019 11.0346 49.2019 10.7089C49.2019 10.436 49.1798 10.1983 49.1357 9.9958C49.1003 9.78451 49.0076 9.61725 48.8575 9.494C48.7074 9.37075 48.4734 9.30912 48.1555 9.30912H47.374V12.1483Z" fill="black"/>
<path d="M52.5702 18.3415V7.64526H55.524C56.2481 7.64526 56.8751 7.72449 57.4049 7.88295C57.9348 8.04142 58.3454 8.32753 58.6368 8.7413C58.9371 9.14626 59.0872 9.72289 59.0872 10.4712C59.0872 10.9114 59.0519 11.3031 58.9812 11.6465C58.9106 11.9898 58.7781 12.2891 58.5838 12.5444C58.3984 12.7909 58.1291 12.9978 57.7758 13.1651L59.2461 18.3415H56.7956L55.6167 13.548H54.9412V18.3415H52.5702ZM54.9412 12.1879H55.6035C55.9391 12.1879 56.1996 12.1307 56.385 12.0162C56.5705 11.893 56.6985 11.7213 56.7691 11.5012C56.8486 11.2723 56.8884 10.9994 56.8884 10.6825C56.8884 10.2247 56.8045 9.86815 56.6367 9.61285C56.4689 9.35754 56.1598 9.22989 55.7095 9.22989H54.9412V12.1879Z" fill="black"/>
<path d="M63.4821 18.5C62.6786 18.5 62.0427 18.3591 61.5747 18.0774C61.1067 17.7957 60.7711 17.3908 60.568 16.8625C60.3649 16.3343 60.2634 15.7049 60.2634 14.9742V10.9994C60.2634 10.2599 60.3649 9.63045 60.568 9.11104C60.7711 8.59164 61.1067 8.19548 61.5747 7.92257C62.0427 7.64086 62.6786 7.5 63.4821 7.5C64.2946 7.5 64.9348 7.64086 65.4028 7.92257C65.8797 8.19548 66.2196 8.59164 66.4227 9.11104C66.6258 9.63045 66.7274 10.2599 66.7274 10.9994V14.9742C66.7274 15.7049 66.6258 16.3343 66.4227 16.8625C66.2196 17.3908 65.8797 17.7957 65.4028 18.0774C64.9348 18.3591 64.2946 18.5 63.4821 18.5ZM63.4821 16.8229C63.7294 16.8229 63.9104 16.7613 64.0252 16.6381C64.14 16.5148 64.2151 16.3563 64.2504 16.1627C64.2857 15.969 64.3034 15.7709 64.3034 15.5684V10.4184C64.3034 10.2071 64.2857 10.009 64.2504 9.82413C64.2151 9.63045 64.14 9.47199 64.0252 9.34874C63.9104 9.22549 63.7294 9.16387 63.4821 9.16387C63.2525 9.16387 63.0803 9.22549 62.9655 9.34874C62.8507 9.47199 62.7757 9.63045 62.7404 9.82413C62.705 10.009 62.6874 10.2071 62.6874 10.4184V15.5684C62.6874 15.7709 62.7006 15.969 62.7271 16.1627C62.7624 16.3563 62.8331 16.5148 62.9391 16.6381C63.0539 16.7613 63.2349 16.8229 63.4821 16.8229Z" fill="black"/>
<path d="M70.9653 18.5C70.2235 18.5 69.6363 18.3459 69.2036 18.0378C68.7797 17.7297 68.475 17.2983 68.2896 16.7437C68.113 16.1803 68.0247 15.5332 68.0247 14.8025V11.2107C68.0247 10.4536 68.1218 9.79772 68.3161 9.2431C68.5103 8.68848 68.8415 8.2615 69.3095 7.96219C69.7864 7.65406 70.431 7.5 71.2434 7.5C72.0382 7.5 72.6607 7.63205 73.1111 7.89616C73.5703 8.16026 73.897 8.52561 74.0913 8.9922C74.2856 9.45878 74.3827 10.0046 74.3827 10.6297V11.3163H72.0647V10.4448C72.0647 10.2159 72.047 10.0046 72.0117 9.81092C71.9852 9.61725 71.9146 9.46319 71.7998 9.34874C71.6938 9.22549 71.5172 9.16387 71.2699 9.16387C71.0138 9.16387 70.8284 9.23429 70.7136 9.37515C70.5988 9.5072 70.5237 9.67447 70.4884 9.87695C70.4619 10.0794 70.4487 10.2907 70.4487 10.5108V15.4628C70.4487 15.7005 70.4707 15.925 70.5149 16.1363C70.5679 16.3387 70.6562 16.506 70.7798 16.6381C70.9123 16.7613 71.0977 16.8229 71.3361 16.8229C71.5834 16.8229 71.7733 16.7569 71.9057 16.6249C72.0382 16.4928 72.1309 16.3211 72.1839 16.1098C72.2369 15.8986 72.2634 15.6741 72.2634 15.4364V14.1819H71.2964V12.7953H74.396V18.3415H72.8329L72.7005 17.4568C72.5592 17.7561 72.3517 18.007 72.0779 18.2095C71.8042 18.4032 71.4333 18.5 70.9653 18.5Z" fill="black"/>
<path d="M75.8799 18.3415V7.64526H78.8338C79.5579 7.64526 80.1848 7.72449 80.7147 7.88295C81.2445 8.04142 81.6551 8.32753 81.9465 8.7413C82.2468 9.14626 82.3969 9.72289 82.3969 10.4712C82.3969 10.9114 82.3616 11.3031 82.2909 11.6465C82.2203 11.9898 82.0878 12.2891 81.8936 12.5444C81.7081 12.7909 81.4388 12.9978 81.0856 13.1651L82.5559 18.3415H80.1054L78.9265 13.548H78.2509V18.3415H75.8799ZM78.2509 12.1879H78.9132C79.2488 12.1879 79.5093 12.1307 79.6947 12.0162C79.8802 11.893 80.0082 11.7213 80.0789 11.5012C80.1583 11.2723 80.1981 10.9994 80.1981 10.6825C80.1981 10.2247 80.1142 9.86815 79.9464 9.61285C79.7786 9.35754 79.4696 9.22989 79.0192 9.22989H78.2509V12.1879Z" fill="black"/>
<path d="M83.8223 18.3415V7.64526H88.6438V9.2563H86.1933V11.9106H88.061V13.548H86.1933V16.7437H88.6703V18.3415H83.8223Z" fill="black"/>
<path d="M92.5946 18.5C91.9235 18.5 91.3627 18.3812 90.9124 18.1435C90.462 17.9058 90.122 17.5404 89.8925 17.0474C89.6629 16.5456 89.5348 15.8986 89.5083 15.1062L91.5349 14.8025C91.5438 15.2603 91.5835 15.6301 91.6542 15.9118C91.7336 16.1935 91.8396 16.396 91.9721 16.5192C92.1134 16.6425 92.2811 16.7041 92.4754 16.7041C92.7227 16.7041 92.8816 16.6204 92.9523 16.4532C93.0317 16.2859 93.0715 16.1098 93.0715 15.925C93.0715 15.4848 92.9655 15.115 92.7536 14.8157C92.5416 14.5076 92.2546 14.1995 91.8926 13.8914L90.9654 13.0858C90.5592 12.7425 90.2148 12.3551 89.9322 11.9238C89.6584 11.4836 89.5216 10.9422 89.5216 10.2995C89.5216 9.39276 89.7909 8.70168 90.3296 8.22629C90.8682 7.7421 91.6012 7.5 92.5284 7.5C93.1024 7.5 93.5616 7.59684 93.906 7.79052C94.2592 7.98419 94.5241 8.2395 94.7007 8.55642C94.8862 8.86455 95.0098 9.19468 95.0716 9.54682C95.1423 9.89016 95.182 10.2203 95.1908 10.5372L93.1509 10.7881C93.1421 10.4712 93.12 10.1983 93.0847 9.96939C93.0582 9.73169 92.9964 9.55122 92.8993 9.42797C92.8021 9.29592 92.652 9.22989 92.4489 9.22989C92.2281 9.22989 92.0648 9.32233 91.9588 9.5072C91.8617 9.69208 91.8131 9.87695 91.8131 10.0618C91.8131 10.458 91.9058 10.7837 92.0913 11.039C92.2855 11.2855 92.5372 11.5452 92.8463 11.8181L93.7338 12.5972C94.2018 12.9934 94.5948 13.4424 94.9127 13.9442C95.2394 14.446 95.4028 15.0666 95.4028 15.8061C95.4028 16.3079 95.288 16.7657 95.0584 17.1795C94.8288 17.5844 94.502 17.9058 94.0782 18.1435C93.6631 18.3812 93.1686 18.5 92.5946 18.5Z" fill="black"/>
<path d="M99.1917 18.5C98.5206 18.5 97.9598 18.3812 97.5095 18.1435C97.0591 17.9058 96.7191 17.5404 96.4895 17.0474C96.2599 16.5456 96.1319 15.8986 96.1054 15.1062L98.132 14.8025C98.1409 15.2603 98.1806 15.6301 98.2513 15.9118C98.3307 16.1935 98.4367 16.396 98.5692 16.5192C98.7104 16.6425 98.8782 16.7041 99.0725 16.7041C99.3198 16.7041 99.4787 16.6204 99.5494 16.4532C99.6288 16.2859 99.6686 16.1098 99.6686 15.925C99.6686 15.4848 99.5626 15.115 99.3507 14.8157C99.1387 14.5076 98.8517 14.1995 98.4897 13.8914L97.5625 13.0858C97.1563 12.7425 96.8119 12.3551 96.5293 11.9238C96.2555 11.4836 96.1187 10.9422 96.1187 10.2995C96.1187 9.39276 96.388 8.70168 96.9267 8.22629C97.4653 7.7421 98.1983 7.5 99.1255 7.5C99.6995 7.5 100.159 7.59684 100.503 7.79052C100.856 7.98419 101.121 8.2395 101.298 8.55642C101.483 8.86455 101.607 9.19468 101.669 9.54682C101.739 9.89016 101.779 10.2203 101.788 10.5372L99.748 10.7881C99.7392 10.4712 99.7171 10.1983 99.6818 9.96939C99.6553 9.73169 99.5935 9.55122 99.4964 9.42797C99.3992 9.29592 99.2491 9.22989 99.046 9.22989C98.8252 9.22989 98.6619 9.32233 98.5559 9.5072C98.4588 9.69208 98.4102 9.87695 98.4102 10.0618C98.4102 10.458 98.5029 10.7837 98.6884 11.039C98.8826 11.2855 99.1343 11.5452 99.4434 11.8181L100.331 12.5972C100.799 12.9934 101.192 13.4424 101.51 13.9442C101.836 14.446 102 15.0666 102 15.8061C102 16.3079 101.885 16.7657 101.655 17.1795C101.426 17.5844 101.099 17.9058 100.675 18.1435C100.26 18.3812 99.7657 18.5 99.1917 18.5Z" fill="black"/>
<path d="M45.616 31.8415V22.9016H44V21.1453H49.603V22.9016H48.0003V31.8415H45.616Z" fill="black"/>
<path d="M50.5476 31.8415V21.1453H53.5015C54.2256 21.1453 54.8526 21.2245 55.3824 21.383C55.9122 21.5414 56.3229 21.8275 56.6143 22.2413C56.9145 22.6463 57.0646 23.2229 57.0646 23.9712C57.0646 24.4114 57.0293 24.8031 56.9587 25.1465C56.888 25.4898 56.7556 25.7891 56.5613 26.0444C56.3758 26.2909 56.1065 26.4978 55.7533 26.6651L57.2236 31.8415H54.7731L53.5942 27.048H52.9186V31.8415H50.5476ZM52.9186 25.6879H53.5809C53.9165 25.6879 54.177 25.6307 54.3625 25.5162C54.5479 25.393 54.6759 25.2213 54.7466 25.0012C54.8261 24.7723 54.8658 24.4994 54.8658 24.1825C54.8658 23.7247 54.7819 23.3681 54.6141 23.1128C54.4463 22.8575 54.1373 22.7299 53.6869 22.7299H52.9186V25.6879Z" fill="black"/>
<path d="M57.9734 31.8415L60 21.1453H62.7022L64.7024 31.8415H62.5168L62.1591 29.5834H60.5829L60.212 31.8415H57.9734ZM60.7948 28.1705H61.934L61.3644 23.9976L60.7948 28.1705Z" fill="black"/>
<path d="M68.6905 32C67.8781 32 67.2335 31.8547 66.7566 31.5642C66.2886 31.2649 65.9574 30.8511 65.7632 30.3229C65.5689 29.7859 65.4718 29.1565 65.4718 28.4346V24.5786C65.4718 23.8391 65.5689 23.2053 65.7632 22.6771C65.9574 22.1401 66.2886 21.7263 66.7566 21.4358C67.2335 21.1453 67.8781 21 68.6905 21C69.4853 21 70.1034 21.1321 70.5449 21.3962C70.9953 21.6515 71.3132 22.0124 71.4987 22.479C71.6841 22.9456 71.7768 23.4826 71.7768 24.09V25.0144H69.4588V23.9448C69.4588 23.7335 69.4455 23.531 69.419 23.3373C69.4014 23.1437 69.3396 22.9852 69.2336 22.8619C69.1276 22.7299 68.9466 22.6639 68.6905 22.6639C68.4433 22.6639 68.2578 22.7299 68.1342 22.8619C68.0194 22.994 67.9443 23.1613 67.909 23.3637C67.8825 23.5574 67.8693 23.7643 67.8693 23.9844V29.0156C67.8693 29.2533 67.8869 29.4734 67.9223 29.6759C67.9664 29.8695 68.0459 30.028 68.1607 30.1513C68.2843 30.2657 68.4609 30.3229 68.6905 30.3229C68.9378 30.3229 69.1144 30.2613 69.2204 30.1381C69.3263 30.006 69.3926 29.8387 69.419 29.6363C69.4455 29.4338 69.4588 29.2269 69.4588 29.0156V27.8932H71.7768V28.8175C71.7768 29.425 71.6841 29.9708 71.4987 30.455C71.322 30.9304 71.0086 31.3089 70.5582 31.5906C70.1167 31.8635 69.4941 32 68.6905 32Z" fill="black"/>
<path d="M73.0812 31.8415V21.1453H75.4523V25.5162L77.2537 21.1453H79.5717L77.5848 25.9784L79.6645 31.8415H77.2537L75.7039 27.114L75.4523 27.5366V31.8415H73.0812Z" fill="black"/>
<path d="M80.5967 31.8415V21.1453H85.4183V22.7563H82.9678V25.4106H84.8354V27.048H82.9678V30.2437H85.4448V31.8415H80.5967Z" fill="black"/>
<path d="M86.5212 31.8415V21.1453H89.475C90.1991 21.1453 90.8261 21.2245 91.356 21.383C91.8858 21.5414 92.2964 21.8275 92.5878 22.2413C92.8881 22.6463 93.0382 23.2229 93.0382 23.9712C93.0382 24.4114 93.0029 24.8031 92.9322 25.1465C92.8616 25.4898 92.7291 25.7891 92.5348 26.0444C92.3494 26.2909 92.0801 26.4978 91.7268 26.6651L93.1971 31.8415H90.7466L89.5678 27.048H88.8922V31.8415H86.5212ZM88.8922 25.6879H89.5545C89.8901 25.6879 90.1506 25.6307 90.336 25.5162C90.5215 25.393 90.6495 25.2213 90.7202 25.0012C90.7996 24.7723 90.8394 24.4994 90.8394 24.1825C90.8394 23.7247 90.7555 23.3681 90.5877 23.1128C90.4199 22.8575 90.1108 22.7299 89.6605 22.7299H88.8922V25.6879Z" fill="black"/>
</svg>
