<svg width="48" height="32" viewBox="0 0 48 32" fill="none" xmlns="http://www.w3.org/2000/svg">
<path d="M0 32L6.48399 0H15.1293L21.5285 32H14.536L13.3918 25.2444H8.34867L7.16206 32H0ZM9.02673 21.0173H12.6713L10.849 8.53333L9.02673 21.0173Z" fill="black"/>
<path fill-rule="evenodd" clip-rule="evenodd" d="M23.7125 32L23.7142 17.6593H25.8755L29.6473 32H37.4874L32.7833 16.5136C33.9134 16.0132 34.7751 15.3942 35.3684 14.6568C35.99 13.893 36.4138 12.9975 36.6398 11.9704C36.8658 10.9432 36.9788 9.77119 36.9788 8.45432C36.9788 6.21564 36.4986 4.49054 35.538 3.27901C34.6056 2.04115 33.2919 1.18519 31.5967 0.711111C29.9015 0.237037 27.8956 0 25.5789 0H17.3118L23.7125 32ZM25.8332 13.5901H23.7142V4.74074H26.1722C27.6131 4.74074 28.6019 5.12263 29.1387 5.88642C29.6755 6.65021 29.9439 7.71687 29.9439 9.08642C29.9439 10.0346 29.8168 10.851 29.5625 11.5358C29.3365 12.1942 28.9268 12.7078 28.3335 13.0765C27.7402 13.4189 26.9068 13.5901 25.8332 13.5901Z" fill="black"/>
<path d="M39.7172 32H42.8722V5.25432H48.0001V0L34.9744 0C35.8648 0.56236 36.6386 1.26478 37.2791 2.11019C38.6047 3.79427 39.1243 5.99547 39.1243 8.45432C39.1243 9.87358 39.0029 11.1843 38.7415 12.3723C38.4576 13.6627 37.9123 14.8385 37.0813 15.8612C36.5867 16.4749 35.9847 17.0031 35.2995 17.4562L39.7172 32Z" fill="black"/>
</svg>
